<svg id="svg" xmlns="http://www.w3.org/2000/svg" xmlns:xlink="http://www.w3.org/1999/xlink" width="400" height="400" viewBox="0, 0, 400,400"><g id="svgg"><path id="path0" d="M176.563 5.559 C 59.085 18.967,-19.902 134.272,9.382 249.609 C 37.090 358.741,153.499 422.481,260.547 387.136 C 356.551 355.437,412.835 256.433,390.917 157.813 C 369.207 60.127,276.347 -5.830,176.563 5.559 M220.366 118.431 C 225.422 119.914,294.793 188.041,297.232 193.920 C 298.906 197.953,298.769 204.113,296.928 207.648 C 294.670 211.983,225.305 280.908,221.705 282.394 C 211.501 286.608,199.227 278.517,199.227 267.578 C 199.227 261.779,200.396 260.293,222.122 238.477 L 243.322 217.188 179.615 217.188 C 125.748 217.188,115.309 217.010,112.029 216.035 C 97.688 211.777,96.145 192.531,109.621 186.008 C 112.958 184.392,113.665 184.375,177.590 184.375 C 213.119 184.375,242.188 184.126,242.188 183.821 C 242.188 183.516,232.907 173.936,221.564 162.532 C 204.500 145.375,200.793 141.258,200.084 138.672 C 197.162 128.015,203.415 119.433,215.679 117.266 C 215.923 117.223,218.032 117.747,220.366 118.431 " stroke="none" fill="#080811" fill-rule="evenodd"></path></g></svg>