<svg id="svg" xmlns="http://www.w3.org/2000/svg" xmlns:xlink="http://www.w3.org/1999/xlink" width="400" height="400" viewBox="0, 0, 400,400"><g id="svgg"><path id="path0" d="M225.645 34.641 C 219.357 36.988,203.553 52.639,200.303 59.738 C 197.718 65.383,197.898 73.257,200.740 78.906 C 201.975 81.360,215.393 95.336,245.168 125.180 L 287.828 167.939 152.312 168.149 L 16.797 168.359 12.891 170.157 C 2.179 175.087,0.018 180.040,0.008 199.680 L 0.000 214.594 2.390 219.378 C 4.896 224.392,8.601 227.934,13.798 230.285 C 16.602 231.552,25.630 231.654,152.703 231.851 L 288.610 232.061 244.796 275.992 C 196.517 324.399,198.438 322.077,198.438 332.046 C 198.438 340.318,212.490 358.566,223.461 364.539 C 227.301 366.630,239.816 366.650,243.750 364.571 C 247.532 362.572,394.883 215.345,397.512 210.938 C 400.228 206.385,400.597 194.447,398.164 189.844 C 396.189 186.106,248.938 38.709,244.603 36.131 C 240.416 33.640,230.430 32.855,225.645 34.641 " stroke="none" fill="#fff" fill-rule="evenodd"></path></g></svg>